<svg version="1.1" id="Layer_1" xmlns="http://www.w3.org/2000/svg" xmlns:xlink="http://www.w3.org/1999/xlink" x="0px" y="0px"
	 width="100%" viewBox="0 0 2000 1247" enable-background="new 0 0 2000 1247" xml:space="preserve">
<path fill="#4C6971" opacity="1.000000" stroke="none" 
	d="
M327.330353,1247.641602 
	C219.691376,1248.000000 112.382736,1247.982300 5.074202,1248.083984 
	C1.813157,1248.087036 0.896575,1247.651611 0.897516,1244.075928 
	C1.006274,831.004395 1.006869,417.932831 0.891169,4.861319 
	C0.890131,1.157106 2.007843,0.923456 5.136932,0.926056 
	C112.112129,1.014943 219.087418,1.000000 326.531342,1.000000 
	C329.063019,2.672199 329.114746,5.016430 329.139008,7.375081 
	C329.216034,14.869147 329.172241,22.363394 329.172943,29.857527 
	C329.177917,84.815201 329.175415,139.772888 329.176086,194.730560 
	C329.176086,196.562454 329.141571,198.395248 329.201691,200.226059 
	C329.383850,205.770874 330.199310,206.744370 335.609528,206.776611 
	C353.262085,206.881760 370.915649,206.884460 388.568176,206.774445 
	C393.765472,206.742065 394.713776,205.789230 394.769562,200.587128 
	C394.914185,187.098495 394.817352,173.608307 394.822266,160.118759 
	C394.831970,133.472610 394.799927,106.826431 394.855774,80.180382 
	C394.861969,77.222885 394.357880,74.157822 396.212799,70.976273 
	C398.756531,68.985748 401.334015,69.531364 403.776123,69.528091 
	C435.016327,69.486214 466.256592,69.497459 497.496857,69.510139 
	C500.160919,69.511215 502.814362,69.507935 505.913086,68.774307 
	C508.069641,68.602806 509.685547,69.029160 511.818604,69.152969 
	C527.215027,68.422821 542.132996,69.021461 557.044922,68.828918 
	C559.032959,68.803253 561.023682,68.884125 563.497070,68.635117 
	C575.590027,70.029884 587.198975,69.957695 599.296265,68.690102 
	C608.411377,69.119949 617.056030,68.611053 626.161682,69.008713 
	C629.163391,69.553680 631.631104,68.768402 634.609009,68.689987 
	C638.475647,69.360771 641.868958,69.785973 645.750244,68.701538 
	C656.821106,69.144135 667.426453,68.534027 678.493591,69.084869 
	C693.036804,68.546661 707.120117,69.063721 721.666626,68.589546 
	C722.458313,68.468674 722.775879,68.424515 723.573364,68.382195 
	C726.530090,68.889427 729.057495,68.879822 732.036499,69.112930 
	C747.708435,68.593193 762.905945,68.791122 778.585693,69.069496 
	C795.039795,68.550194 811.018250,68.923485 826.993530,68.828682 
	C832.649597,68.795113 838.308105,68.722275 844.437317,69.212158 
	C863.289551,68.710800 881.653625,68.420174 900.013977,69.310616 
	C901.007874,69.358826 901.998535,69.392479 903.478516,69.235641 
	C916.102844,68.415398 928.252930,68.817642 940.393433,68.873428 
	C956.026550,68.945267 971.670410,68.230598 987.295654,69.440407 
	C991.098083,69.734818 994.953003,69.733955 999.203979,68.685181 
	C1007.462952,69.178764 1015.263672,68.423218 1023.508728,69.137398 
	C1038.828613,68.697266 1053.666504,68.597588 1068.979004,69.159866 
	C1072.577881,68.867935 1075.726685,68.982719 1079.316895,68.516907 
	C1080.109009,68.409180 1080.430054,68.390900 1081.230469,68.420395 
	C1089.679321,69.242661 1097.669189,68.751289 1105.648438,68.797958 
	C1111.134399,68.830048 1116.609009,68.979881 1122.561646,69.235550 
	C1138.680542,68.490463 1154.322754,68.838936 1170.439941,68.900208 
	C1187.237061,68.967987 1203.566650,68.527794 1220.364746,69.287346 
	C1229.944336,68.266685 1239.083008,69.294670 1248.681519,68.607101 
	C1253.601196,69.498871 1258.076660,69.526451 1262.571533,69.520164 
	C1289.676636,69.482254 1316.781860,69.490288 1343.886963,69.518623 
	C1346.560669,69.521416 1349.198486,69.398369 1352.288208,68.663635 
	C1364.575562,68.975685 1376.369629,68.959427 1388.663574,68.604263 
	C1393.239868,69.466293 1397.367920,69.527039 1401.522217,69.522148 
	C1433.385742,69.484642 1465.249390,69.493362 1497.112915,69.515907 
	C1499.588745,69.517662 1502.098022,69.222275 1504.958740,70.268463 
	C1506.868286,71.908417 1507.023315,73.729416 1507.095581,75.585480 
	C1507.212646,78.583351 1507.180420,81.582359 1507.180420,84.580978 
	C1507.182495,444.611969 1507.185425,804.642944 1507.144653,1164.673950 
	C1507.144165,1168.956543 1507.898926,1173.341675 1505.876221,1177.915527 
	C1503.376831,1180.018677 1500.790283,1179.468628 1498.351807,1179.471680 
	C1465.122192,1179.513306 1431.892578,1179.506714 1398.662964,1179.481689 
	C1395.824585,1179.479614 1393.021240,1179.620728 1389.758057,1180.336182 
	C1377.465088,1180.018188 1365.667114,1180.052246 1353.370850,1180.386230 
	C1349.464111,1179.494751 1345.983887,1179.482666 1342.486450,1179.485596 
	C1314.204224,1179.508789 1285.922119,1179.495239 1257.639893,1179.504761 
	C1255.148193,1179.505615 1252.646118,1179.355591 1249.695068,1179.944580 
	C1237.799316,1180.223389 1226.381470,1180.288574 1214.482422,1179.920898 
	C1200.002197,1180.305786 1185.999512,1180.184204 1171.511230,1180.094604 
	C1156.372192,1180.179443 1141.719360,1180.339600 1126.588867,1179.921143 
	C1111.667358,1180.286255 1097.215820,1180.023560 1082.295654,1180.420166 
	C1081.502075,1180.541870 1081.183716,1180.585449 1080.384766,1180.625244 
	C1076.809326,1179.941162 1073.629517,1180.284058 1070.038818,1179.832275 
	C1054.405151,1180.440063 1039.245361,1180.267334 1023.601624,1179.916992 
	C1016.008850,1180.501099 1008.871277,1179.828613 1001.265442,1180.390137 
	C994.000854,1178.971680 987.212402,1179.987549 980.410400,1180.046265 
	C954.623657,1180.269165 928.833069,1180.349487 902.557861,1179.949951 
	C885.700867,1180.417969 869.325134,1180.087158 852.952026,1180.171631 
	C850.965820,1180.181885 848.979614,1180.164062 846.511719,1179.947021 
	C830.348083,1180.417969 814.663635,1180.079346 798.982117,1180.180054 
	C796.007263,1180.199219 793.040283,1180.112305 789.593506,1179.863525 
	C773.193420,1180.300537 757.279907,1180.422607 740.888367,1179.833984 
	C735.377869,1180.425903 730.302673,1179.853149 724.795776,1180.486328 
	C723.999939,1180.603394 723.677185,1180.624512 722.871643,1180.603027 
	C715.091614,1179.745850 707.766968,1180.154785 700.460999,1180.223022 
	C692.648499,1180.295898 684.863342,1179.761719 676.585938,1179.717285 
	C666.486694,1180.681396 656.833984,1179.805542 646.723877,1180.321533 
	C642.821045,1179.916504 639.404907,1179.037354 635.485413,1180.277588 
	C629.330322,1180.168823 623.646545,1180.078979 617.505188,1179.733276 
	C611.641968,1180.596313 606.195190,1179.790405 600.308594,1180.367188 
	C588.283386,1178.978271 576.737793,1179.051147 564.702637,1180.295898 
	C559.039490,1180.487061 553.910950,1179.445679 548.242065,1179.782227 
	C527.473022,1180.279419 507.188385,1180.618408 486.908813,1179.668945 
	C480.089661,1179.349609 473.268311,1179.519287 466.448273,1179.509399 
	C445.817200,1179.479370 425.186005,1179.508057 404.554871,1179.486206 
	C402.236084,1179.483765 399.890350,1179.730835 397.175232,1178.803223 
	C394.113007,1175.987427 394.874939,1172.638794 394.869049,1169.565918 
	C394.795166,1130.901978 394.829376,1092.237915 394.823029,1053.573853 
	C394.822723,1051.574219 394.767700,1049.573486 394.784515,1047.575195 
	C394.816498,1043.780640 392.922791,1042.202759 389.220215,1042.197998 
	C371.055023,1042.174072 352.890015,1042.164062 334.724792,1042.204590 
	C330.991150,1042.213013 329.188019,1043.912231 329.214661,1047.659424 
	C329.228882,1049.657837 329.177094,1051.658447 329.177002,1053.658081 
	C329.174164,1114.987305 329.194183,1176.316528 329.129181,1237.645752 
	C329.125732,1240.882690 330.020416,1244.362061 327.330353,1247.641602 
z"/>
<path fill="#4C6971" opacity="1.000000" stroke="none" 
	d="
M1575.658813,1.370480 
	C1715.970825,1.000000 1855.941772,1.018495 1995.912476,0.906280 
	C1999.907715,0.903078 2001.130493,1.441765 2001.129028,5.910518 
	C2000.990234,418.324585 2000.993652,830.738708 2001.096436,1243.152832 
	C2001.097412,1247.001709 2000.612793,1248.128784 1996.348999,1248.124268 
	C1856.545166,1247.973755 1716.741211,1248.000000 1576.468628,1248.000000 
	C1574.319458,1246.589111 1573.912109,1244.699097 1573.879272,1242.618530 
	C1573.839844,1240.119141 1573.818970,1237.620117 1573.818970,1235.120850 
	C1573.817505,828.044067 1573.813477,420.967285 1573.875488,13.890519 
	C1573.876099,9.836078 1572.712158,5.530917 1575.658813,1.370480 
z"/>
<path fill="#EAA79C" opacity="1.000000" stroke="none" 
	d="
M1575.531372,1.000000 
	C1576.002563,416.354248 1576.005249,831.708496 1576.003906,1247.531372 
	C1538.312378,1248.000000 1500.624878,1248.000000 1462.468628,1248.000000 
	C1460.321289,1246.587524 1459.900757,1244.698608 1459.888916,1242.616577 
	C1459.778076,1223.119995 1459.776245,1203.623413 1459.899902,1184.126831 
	C1459.909302,1182.627686 1459.963501,1181.112427 1461.249634,1179.454956 
	C1465.287964,1177.842163 1469.111572,1178.598633 1472.877197,1178.539917 
	C1483.316528,1178.376831 1493.759155,1178.603271 1504.593262,1178.138672 
	C1504.987183,809.258850 1504.987671,440.663452 1504.989136,71.608765 
	C1498.989014,69.687271 1492.894775,70.842186 1486.851685,70.517174 
	C1484.051025,70.366531 1481.237671,70.597275 1478.005859,70.167397 
	C1475.771851,68.260841 1475.877808,66.030167 1475.869019,63.875229 
	C1475.792358,45.045128 1475.784546,26.214859 1475.876831,7.384816 
	C1475.886597,5.409699 1475.733154,3.335064 1477.660767,1.368820 
	C1510.354248,1.000000 1542.708496,1.000000 1575.531372,1.000000 
z"/>
<path fill="#EAA79C" opacity="1.000000" stroke="none" 
	d="
M327.468658,1248.000000 
	C326.999573,1180.703247 327.065002,1113.406372 326.868927,1046.110229 
	C326.853882,1040.938599 328.277679,1039.804077 333.222595,1039.878784 
	C352.540985,1040.171143 371.869629,1040.187256 391.187042,1039.863647 
	C396.207764,1039.779541 397.123291,1041.370239 397.104553,1046.020142 
	C396.928833,1089.662476 397.002197,1133.305542 397.009521,1177.408936 
	C402.352936,1179.305542 407.787994,1178.232056 413.173187,1178.464478 
	C418.279999,1178.684937 423.401062,1178.396606 428.950134,1178.810913 
	C431.189026,1180.679321 431.121246,1182.886719 431.130188,1185.033691 
	C431.208740,1203.906982 431.215424,1222.780151 431.122253,1241.653320 
	C431.112579,1243.616699 431.255127,1245.675903 429.339508,1247.630859 
	C395.312439,1248.000000 361.624878,1248.000000 327.468658,1248.000000 
z"/>
<path fill="#EAA79C" opacity="1.000000" stroke="none" 
	d="
M397.418030,70.841583 
	C397.014679,115.252045 396.944763,159.395447 397.097504,203.538071 
	C397.112457,207.855957 396.135376,209.180405 391.629059,209.119995 
	C371.809784,208.854370 351.983643,208.883133 332.163208,209.098679 
	C327.994476,209.143997 326.899780,207.981613 326.907745,203.829926 
	C327.036560,136.532578 326.998962,69.234909 326.999512,1.468657 
	C358.020905,1.000000 389.041779,1.000000 420.531342,1.000000 
	C422.673706,2.408804 423.099487,4.291188 423.110443,6.369451 
	C423.213898,25.987850 423.238403,45.606186 423.087311,65.224403 
	C423.077026,66.554398 422.992401,67.893997 421.870361,69.427330 
	C415.688507,71.320465 409.711487,70.129486 403.793182,70.484871 
	C401.805176,70.604240 399.805634,70.428978 397.418030,70.841583 
z"/>
<path fill="#F2E5C9" opacity="1.000000" stroke="none" 
	d="
M901.585571,1178.429199 
	C934.676514,1178.132080 967.350159,1178.088867 1000.484985,1178.110962 
	C1000.120422,1181.601807 997.237122,1180.951172 994.895325,1181.093140 
	C987.409973,1181.547363 987.189270,1181.688110 987.172302,1189.303833 
	C987.134521,1206.270020 987.203735,1223.236206 987.122986,1240.202148 
	C987.111389,1242.636963 987.605408,1245.256470 985.316162,1247.656982 
	C956.312439,1248.000000 927.624878,1248.000000 898.468628,1248.000000 
	C896.133850,1246.458496 895.889099,1244.344238 895.881592,1242.122314 
	C895.818848,1223.643677 895.796448,1205.165283 895.892273,1186.686523 
	C895.912354,1182.819214 897.082642,1179.817993 901.585571,1178.429199 
z"/>
<path fill="#F2E5C9" opacity="1.000000" stroke="none" 
	d="
M999.897827,70.359016 
	C968.281982,70.867157 936.606812,70.910873 904.467163,70.890121 
	C897.762024,68.475471 896.949097,67.468475 896.897095,60.619865 
	C896.763428,43.025524 896.814209,25.430296 896.882446,7.835573 
	C896.890686,5.713240 896.622925,3.462865 898.669495,1.359791 
	C927.020874,1.000000 955.041809,1.000000 983.531372,1.000000 
	C986.407532,2.961561 986.124512,5.726475 986.134094,8.363830 
	C986.196594,25.496603 986.130676,42.629562 986.172729,59.762363 
	C986.191284,67.333878 986.382874,67.495827 993.963745,67.878181 
	C996.115845,67.986732 998.354187,67.841400 999.897827,70.359016 
z"/>
<path fill="#EDBDAC" opacity="1.000000" stroke="none" 
	d="
M599.514221,1178.312988 
	C605.327209,1178.123901 610.702271,1178.079590 616.541260,1178.101562 
	C622.766663,1179.481689 624.278381,1183.342896 624.220886,1188.874756 
	C624.041443,1206.136475 624.191406,1223.402100 624.121704,1240.665894 
	C624.112488,1242.942261 624.491272,1245.375122 622.330566,1247.640137 
	C599.312439,1248.000000 576.624878,1248.000000 553.468628,1248.000000 
	C550.593506,1246.032837 550.880188,1243.264771 550.869263,1240.624146 
	C550.810181,1226.301514 550.845459,1211.978760 550.845642,1197.656128 
	C550.845764,1191.244507 551.550415,1184.715332 547.789429,1178.587158 
	C553.049866,1178.128784 558.090027,1178.089111 563.597351,1178.113159 
	C575.730103,1178.890137 587.405823,1178.349976 599.514221,1178.312988 
z"/>
<path fill="#ECB5A6" opacity="1.000000" stroke="none" 
	d="
M547.544250,1178.103027 
	C554.114258,1181.707764 553.043945,1187.584717 553.023804,1193.207642 
	C552.959656,1211.159180 553.000000,1229.110962 553.000000,1247.531372 
	C531.312439,1248.000000 509.624878,1248.000000 487.468658,1248.000000 
	C484.597443,1246.044434 484.869629,1243.285156 484.859314,1240.652588 
	C484.792358,1223.554565 484.860504,1206.456421 484.819275,1189.358398 
	C484.800568,1181.599731 484.397552,1181.201904 476.644196,1181.179932 
	C463.364227,1181.142090 450.083893,1181.219727 436.804230,1181.129761 
	C434.373413,1181.113281 431.760864,1181.605835 429.343323,1179.336182 
	C418.541107,1178.654297 408.066772,1179.713623 397.325867,1178.148926 
	C440.223053,1177.911743 483.430603,1177.953125 526.638184,1177.997314 
	C533.451721,1178.004272 540.265320,1178.023926 547.544250,1178.103027 
z"/>
<path fill="#EEC6B2" opacity="1.000000" stroke="none" 
	d="
M622.468628,1248.000000 
	C622.000000,1228.546143 621.885315,1209.091187 622.084473,1189.639404 
	C622.131470,1185.046875 621.711121,1181.140015 617.107117,1178.494263 
	C622.711426,1178.128174 628.417725,1178.088257 634.591736,1178.112793 
	C638.431213,1178.847412 641.834229,1178.382202 645.588318,1178.313477 
	C655.661987,1178.125732 665.369751,1178.081055 675.542358,1178.102783 
	C686.129578,1181.033447 686.147095,1181.033447 686.156067,1191.933472 
	C686.169312,1208.015015 686.202515,1224.096680 686.122864,1240.177979 
	C686.110779,1242.607300 686.594360,1245.214478 684.330444,1247.640381 
	C663.645752,1248.000000 643.291565,1248.000000 622.468628,1248.000000 
z"/>
<path fill="#EBAFA2" opacity="1.000000" stroke="none" 
	d="
M1461.562256,1178.786011 
	C1462.003296,1201.694092 1462.001587,1224.378418 1462.000000,1247.531372 
	C1441.645752,1248.000000 1421.291504,1248.000000 1400.468628,1248.000000 
	C1397.955078,1246.332520 1397.871460,1244.002197 1397.863403,1241.651489 
	C1397.797852,1222.747437 1397.787354,1203.843384 1397.875488,1184.939331 
	C1397.884033,1183.125732 1397.822266,1181.264160 1399.354980,1179.328857 
	C1401.091919,1178.188354 1402.613647,1178.515381 1404.077148,1178.516602 
	C1423.091309,1178.533569 1442.105591,1178.419800 1461.562256,1178.786011 
z"/>
<path fill="#EDBDAC" opacity="1.000000" stroke="none" 
	d="
M627.395813,70.533890 
	C618.295532,70.876640 609.587585,70.920479 600.411560,70.897995 
	C589.780273,70.009056 579.594116,70.834091 568.999512,70.164215 
	C566.767883,68.254372 566.877869,66.023003 566.869080,63.868908 
	C566.792542,45.040688 566.784607,26.212301 566.876770,7.384140 
	C566.886414,5.409268 566.733154,3.334755 568.660767,1.368781 
	C588.687561,1.000000 608.375122,1.000000 628.531372,1.000000 
	C630.856750,2.532127 631.112183,4.633009 631.120178,6.846426 
	C631.188477,25.734022 631.220825,44.621521 631.103271,63.509102 
	C631.085876,66.310066 630.508789,68.788750 627.395813,70.533890 
z"/>
<path fill="#F0D8C0" opacity="1.000000" stroke="none" 
	d="
M845.236755,70.402779 
	C823.313660,70.864075 801.625122,70.910347 779.472168,70.894135 
	C778.590942,70.279839 778.221069,69.544930 778.539368,68.992188 
	C781.995483,62.990044 780.733459,56.413784 780.800415,50.044094 
	C780.944885,36.293457 780.799194,22.540197 780.881042,8.788455 
	C780.895569,6.361513 780.405212,3.754360 782.678650,1.349459 
	C802.020874,1.000000 821.041809,1.000000 840.531372,1.000000 
	C843.391052,2.954692 843.119446,5.704815 843.130432,8.333273 
	C843.189819,22.577526 843.132141,36.821980 843.163940,51.066284 
	C843.178223,57.461258 842.528625,63.946148 845.236755,70.402779 
z"/>
<path fill="#F1DFC4" opacity="1.000000" stroke="none" 
	d="
M845.466797,70.882256 
	C841.053101,67.477615 840.879089,63.070530 840.925415,58.290119 
	C841.107666,39.507378 841.000000,20.721825 841.000000,1.468657 
	C860.020874,1.000000 879.041809,1.000000 898.531372,1.000000 
	C899.000000,20.753685 899.077881,40.507919 898.938538,60.260620 
	C898.908264,64.555847 899.602417,68.121735 903.891479,70.505142 
	C884.645569,70.866013 865.288452,70.906364 845.466797,70.882256 
z"/>
<path fill="#EECCB7" opacity="1.000000" stroke="none" 
	d="
M684.468628,1248.000000 
	C684.000000,1229.290039 683.781067,1210.575928 684.120667,1191.872192 
	C684.237061,1185.460083 683.933655,1180.152100 676.133911,1178.497681 
	C691.371216,1178.125488 706.735229,1178.081909 722.565796,1178.104004 
	C723.189392,1178.251221 723.346375,1178.332764 723.738403,1178.291260 
	C729.007263,1178.123535 734.041016,1178.078979 739.537598,1178.100464 
	C742.443970,1179.858276 743.109985,1182.290527 743.122742,1185.126587 
	C743.208008,1204.125000 743.205933,1223.123169 743.107117,1242.121460 
	C743.097595,1243.945801 743.132874,1245.827026 741.336548,1247.633911 
	C722.312439,1248.000000 703.624878,1248.000000 684.468628,1248.000000 
z"/>
<path fill="#EBAFA2" opacity="1.000000" stroke="none" 
	d="
M428.992676,1179.481812 
	C446.471100,1179.011353 463.955048,1179.140503 481.434326,1178.912842 
	C485.868835,1178.855225 487.128082,1180.275757 487.087311,1184.627075 
	C486.892395,1205.437378 486.999939,1226.250610 487.000000,1247.531372 
	C467.979095,1248.000000 448.958221,1248.000000 429.468658,1248.000000 
	C428.998840,1225.316284 428.997650,1202.632690 428.992676,1179.481812 
z"/>
<path fill="#F1DFC4" opacity="1.000000" stroke="none" 
	d="
M901.538696,1178.105591 
	C898.063782,1181.519287 897.878540,1185.922974 897.925110,1190.704834 
	C898.107971,1209.489258 898.000000,1228.276489 898.000000,1247.531372 
	C879.645752,1248.000000 861.291565,1248.000000 842.468628,1248.000000 
	C840.133728,1246.458618 839.889221,1244.344482 839.881714,1242.122559 
	C839.819153,1223.644531 839.796265,1205.166748 839.892517,1186.688599 
	C839.912659,1182.823242 841.076721,1179.817627 845.585754,1178.434814 
	C864.360840,1178.133667 882.717651,1178.084717 901.538696,1178.105591 
z"/>
<path fill="#ECB8A8" opacity="1.000000" stroke="none" 
	d="
M568.531372,1.000000 
	C568.999634,23.685560 568.999268,46.371120 568.998230,69.524902 
	C567.677979,70.977287 566.139954,70.265320 564.390686,70.686554 
	C547.011108,70.873375 529.970215,70.916611 512.463989,70.900589 
	C510.790375,69.733162 510.563660,68.337379 510.604889,66.758492 
	C511.113403,47.293896 510.660095,27.824654 510.869476,8.358550 
	C510.894012,6.076450 510.501587,3.637666 512.666138,1.362928 
	C531.354248,1.000000 549.708435,1.000000 568.531372,1.000000 
z"/>
<path fill="#EEC6B2" opacity="1.000000" stroke="none" 
	d="
M627.446899,70.892952 
	C628.741882,67.697876 629.072510,64.347733 629.052551,60.787926 
	C628.942627,41.171570 629.000000,21.554283 629.000000,1.468657 
	C647.354248,1.000000 665.708435,1.000000 684.531372,1.000000 
	C686.853149,2.532021 687.108459,4.629765 687.116333,6.842175 
	C687.181213,25.054199 687.265564,43.266762 687.065918,61.477768 
	C687.000366,67.462822 685.783569,68.745834 679.426819,70.588516 
	C668.297607,70.874596 657.589661,70.918358 646.413818,70.895752 
	C642.575317,70.144089 639.171997,70.622276 635.417114,70.682648 
	C632.663330,70.865929 630.276855,70.909508 627.446899,70.892952 
z"/>
<path fill="#F0D8C0" opacity="1.000000" stroke="none" 
	d="
M845.539673,1178.112793 
	C842.052246,1181.521362 841.879150,1185.928955 841.925476,1190.709595 
	C842.107544,1209.492432 842.000000,1228.278076 842.000000,1247.531372 
	C825.312439,1248.000000 808.624878,1248.000000 791.468628,1248.000000 
	C788.600830,1246.037109 788.874268,1243.275024 788.864136,1240.638428 
	C788.800537,1224.183105 788.734558,1207.726562 788.913574,1191.273315 
	C788.958740,1187.126709 787.631104,1183.074829 788.700806,1178.546875 
	C807.695618,1178.125122 826.385437,1178.084106 845.539673,1178.112793 
z"/>
<path fill="#EFD1BA" opacity="1.000000" stroke="none" 
	d="
M1171.179688,70.394279 
	C1155.285645,70.875237 1139.604126,70.920502 1123.457886,70.897949 
	C1116.480713,68.425644 1115.923462,67.769371 1115.882690,60.714867 
	C1115.780762,43.092625 1115.806763,25.469780 1115.881470,7.847354 
	C1115.890503,5.721811 1115.620483,3.467834 1117.668945,1.360380 
	C1134.687622,1.000000 1151.375122,1.000000 1168.531372,1.000000 
	C1171.392212,2.955466 1171.124390,5.708053 1171.135376,8.337819 
	C1171.198242,23.418266 1171.179932,38.498936 1171.149536,53.579403 
	C1171.138550,59.041748 1171.279175,64.499382 1171.179688,70.394279 
z"/>
<path fill="#EFD1BA" opacity="1.000000" stroke="none" 
	d="
M782.531372,1.000000 
	C783.000000,20.881235 782.897705,40.763443 783.086914,60.642879 
	C783.124451,64.583633 782.354736,67.748238 779.108765,70.505157 
	C763.648438,70.873886 748.289185,70.916107 732.465088,70.895294 
	C730.022827,69.355461 729.889282,67.200371 729.879089,65.012283 
	C729.788818,45.626572 729.778870,26.240801 729.890625,6.855187 
	C729.901062,5.041047 729.875854,3.172166 731.660522,1.369192 
	C748.687561,1.000000 765.375122,1.000000 782.531372,1.000000 
z"/>
<path fill="#ECB5A6" opacity="1.000000" stroke="none" 
	d="
M1399.636230,1178.784790 
	C1400.002075,1201.690796 1400.000977,1224.376831 1400.000000,1247.531372 
	C1383.312378,1248.000000 1366.624878,1248.000000 1349.468628,1248.000000 
	C1347.522705,1246.708252 1346.925659,1245.063354 1346.917114,1243.122070 
	C1346.827515,1222.812988 1346.635498,1202.503784 1347.022827,1182.195557 
	C1347.032471,1181.686646 1347.223389,1181.220825 1347.594971,1180.321533 
	C1348.820435,1178.202393 1350.510010,1178.554565 1352.491699,1178.318115 
	C1364.665161,1178.130249 1376.393921,1178.084595 1388.591309,1178.103760 
	C1392.438354,1178.933716 1395.873901,1178.236572 1399.636230,1178.784790 
z"/>
<path fill="#F0D7BF" opacity="1.000000" stroke="none" 
	d="
M1069.630127,1178.492676 
	C1073.042847,1178.119263 1076.083984,1178.074951 1079.576904,1178.097168 
	C1080.185913,1178.247314 1080.342896,1178.330811 1080.736816,1178.291260 
	C1095.670044,1178.126953 1110.366455,1178.085571 1125.527222,1178.106934 
	C1126.883789,1179.705933 1126.034912,1180.907104 1124.863770,1181.491943 
	C1121.166138,1183.338623 1121.163574,1186.619629 1121.159790,1190.000244 
	C1121.141479,1206.741943 1121.199341,1223.483765 1121.117554,1240.225220 
	C1121.105713,1242.652588 1121.595215,1245.261841 1119.315918,1247.656494 
	C1102.645752,1248.000000 1086.291504,1248.000000 1069.468628,1248.000000 
	C1066.957397,1246.336792 1066.873779,1244.012207 1066.866943,1241.665039 
	C1066.812744,1222.964478 1066.779053,1204.263916 1066.885620,1185.563354 
	C1066.899902,1183.047119 1067.001709,1180.552856 1069.630127,1178.492676 
z"/>
<path fill="#EFD1BA" opacity="1.000000" stroke="none" 
	d="
M788.541138,1178.098389 
	C790.924500,1182.170044 791.062805,1186.417114 791.040649,1190.773071 
	C790.945435,1209.535889 791.000000,1228.299438 791.000000,1247.531372 
	C774.645752,1248.000000 758.291565,1248.000000 741.468628,1248.000000 
	C741.000000,1227.943359 740.977905,1207.886719 741.023926,1187.830078 
	C741.030823,1184.828613 740.862549,1181.881104 740.025879,1178.576416 
	C756.025757,1178.121216 772.051086,1178.075928 788.541138,1178.098389 
z"/>
<path fill="#EFD1BA" opacity="1.000000" stroke="none" 
	d="
M1119.468628,1248.000000 
	C1119.000000,1228.743042 1119.192383,1209.483032 1118.880737,1190.231201 
	C1118.789307,1184.578125 1119.425049,1180.223389 1125.865723,1178.498901 
	C1140.672974,1178.127441 1155.354248,1178.084961 1170.497803,1178.106201 
	C1171.746094,1179.307617 1172.086792,1180.575317 1171.961914,1181.943237 
	C1170.206055,1201.166504 1171.646484,1220.434082 1171.131958,1239.673706 
	C1171.062500,1242.266846 1171.695190,1245.051270 1169.328491,1247.642700 
	C1152.645752,1248.000000 1136.291504,1248.000000 1119.468628,1248.000000 
z"/>
<path fill="#EDBBAB" opacity="1.000000" stroke="none" 
	d="
M1348.556152,1178.780518 
	C1349.000000,1201.687622 1349.000000,1224.375122 1349.000000,1247.531372 
	C1332.645752,1248.000000 1316.291504,1248.000000 1299.468628,1248.000000 
	C1296.955688,1246.333130 1296.871582,1244.003662 1296.863403,1241.653564 
	C1296.797607,1222.755249 1296.788086,1203.857056 1296.875122,1184.958740 
	C1296.883545,1183.146240 1296.817993,1181.284546 1298.343750,1179.345093 
	C1303.743042,1177.948242 1308.859131,1178.574585 1313.944458,1178.538574 
	C1325.332886,1178.457764 1336.723145,1178.421997 1348.556152,1178.780518 
z"/>
<path fill="#EDC1AF" opacity="1.000000" stroke="none" 
	d="
M1298.568115,1178.786133 
	C1299.003296,1201.694092 1299.001587,1224.378418 1299.000000,1247.531372 
	C1282.645752,1248.000000 1266.291504,1248.000000 1249.468628,1248.000000 
	C1247.138916,1246.464722 1246.887939,1244.358276 1246.879395,1242.141724 
	C1246.808228,1223.717773 1246.797729,1205.294067 1246.881226,1186.869995 
	C1246.896729,1183.457642 1247.774658,1180.639038 1251.584839,1178.909424 
	C1267.391113,1178.303345 1282.761597,1178.538574 1298.568115,1178.786133 
z"/>
<path fill="#F0D7BF" opacity="1.000000" stroke="none" 
	d="
M1117.531372,1.000000 
	C1118.000000,20.799826 1118.100586,40.600563 1117.921143,60.398766 
	C1117.881958,64.724037 1118.495850,68.234062 1122.883545,70.507782 
	C1109.296265,70.874237 1095.599487,70.918335 1081.436035,70.896881 
	C1080.811646,70.749435 1080.653687,70.667542 1080.260254,70.710793 
	C1076.984131,70.880432 1073.943726,70.924934 1070.452637,70.902786 
	C1067.558472,69.144608 1066.890137,66.713242 1066.877441,63.876568 
	C1066.791870,44.877224 1066.794312,25.878056 1066.892822,6.878924 
	C1066.902344,5.054426 1066.867065,3.173048 1068.663452,1.366095 
	C1085.020874,1.000000 1101.041870,1.000000 1117.531372,1.000000 
z"/>
<path fill="#EBB0A3" opacity="1.000000" stroke="none" 
	d="
M512.531372,1.000000 
	C513.000000,21.058830 512.977722,41.117714 513.024109,61.176434 
	C513.031067,64.178421 512.859802,67.125923 512.024414,70.431282 
	C510.592407,70.883263 509.186188,70.925194 507.361816,70.902451 
	C494.674530,70.055145 482.392181,70.715988 470.117828,70.500481 
	C468.291504,70.468414 466.463684,70.552505 464.189026,70.242889 
	C462.717834,69.045006 462.451141,67.787407 462.503204,66.412033 
	C463.242584,46.887512 462.588623,27.354431 462.872559,7.827333 
	C462.903320,5.710102 462.621216,3.466035 464.665466,1.363629 
	C480.687561,1.000000 496.375122,1.000000 512.531372,1.000000 
z"/>
<path fill="#EDBBAB" opacity="1.000000" stroke="none" 
	d="
M1299.659302,1.370488 
	C1315.687622,1.000000 1331.375122,1.000000 1347.531372,1.000000 
	C1350.044312,2.666924 1350.128540,4.996274 1350.136719,7.346536 
	C1350.202515,26.245275 1350.211914,45.144051 1350.124756,64.042709 
	C1350.116455,65.855415 1350.180908,67.716919 1348.654541,69.656395 
	C1342.246948,71.078178 1336.131714,70.392693 1330.041748,70.461258 
	C1320.283569,70.571136 1310.522217,70.561974 1300.287109,70.295654 
	C1297.826416,68.608070 1297.892334,66.376564 1297.880615,64.225029 
	C1297.777588,45.275059 1297.790039,26.324856 1297.877197,7.374873 
	C1297.886230,5.404179 1297.738770,3.335867 1299.659302,1.370488 
z"/>
<path fill="#EBB0A3" opacity="1.000000" stroke="none" 
	d="
M1392.661865,1.367709 
	C1408.687622,1.000000 1424.375122,1.000000 1440.531372,1.000000 
	C1442.662964,2.402004 1443.089111,4.270217 1443.108154,6.341631 
	C1443.296387,26.859312 1443.044800,47.377888 1443.239990,67.895485 
	C1443.244873,68.404953 1442.978760,68.847244 1442.507202,69.702316 
	C1432.254639,71.019714 1422.286621,70.301971 1412.330322,70.476517 
	C1406.511719,70.578529 1400.688843,70.543335 1394.386230,70.345558 
	C1391.611450,68.438995 1390.896484,66.020340 1390.881714,63.205200 
	C1390.783569,44.425930 1390.793213,25.646830 1390.891968,6.867764 
	C1390.901611,5.048214 1390.871216,3.172970 1392.661865,1.367709 
z"/>
<path fill="#EECCB7" opacity="1.000000" stroke="none" 
	d="
M731.531372,1.000000 
	C732.000061,23.972450 732.000183,46.944901 732.000244,70.374802 
	C729.618286,70.876144 727.236389,70.920036 724.412109,70.897797 
	C723.812866,70.749641 723.656006,70.667618 723.263550,70.707809 
	C708.663635,70.871765 694.299377,70.913513 679.470337,70.893044 
	C685.958679,67.526817 685.048401,61.255600 685.024719,55.213158 
	C684.955261,37.454781 685.000000,19.695961 685.000000,1.468657 
	C700.354248,1.000000 715.708435,1.000000 731.531372,1.000000 
z"/>
<path fill="#F0DCC2" opacity="1.000000" stroke="none" 
	d="
M1069.536621,1178.099854 
	C1068.371460,1184.681152 1069.057739,1191.322144 1069.025879,1197.913330 
	C1068.946899,1214.296143 1069.000000,1230.679565 1069.000000,1247.531372 
	C1053.979126,1248.000000 1038.958130,1248.000000 1023.468628,1248.000000 
	C1020.957031,1246.333984 1020.872070,1244.006348 1020.863708,1241.657104 
	C1020.795898,1222.602783 1020.789978,1203.548462 1020.876892,1184.494263 
	C1020.885864,1182.531128 1020.726379,1180.469360 1022.636719,1178.515015 
	C1038.355957,1178.123413 1053.713745,1178.079712 1069.536621,1178.099854 
z"/>
<path fill="#F0DCC2" opacity="1.000000" stroke="none" 
	d="
M1068.531372,1.000000 
	C1069.000000,21.057383 1069.022217,41.114815 1068.975952,61.172089 
	C1068.968994,64.173721 1069.136963,67.121368 1069.975464,70.426163 
	C1054.976196,70.880127 1039.950439,70.924110 1024.460205,70.900337 
	C1021.580933,69.396202 1020.902588,67.158386 1020.888733,64.497055 
	C1020.787964,45.114693 1020.778137,25.732498 1020.907715,6.350349 
	C1020.918823,4.686991 1021.017334,3.014540 1022.663086,1.366465 
	C1038.020874,1.000000 1053.041870,1.000000 1068.531372,1.000000 
z"/>
<path fill="#ECB5A6" opacity="1.000000" stroke="none" 
	d="
M1392.531372,1.000000 
	C1393.000000,20.597885 1393.024414,40.195831 1392.975342,59.793594 
	C1392.967407,62.965740 1393.131836,66.086151 1393.977295,69.575996 
	C1392.677368,70.973541 1391.139404,70.266975 1389.388550,70.687302 
	C1377.321045,70.874260 1365.592041,70.916924 1353.394043,70.891953 
	C1351.526001,70.191757 1350.025757,70.674149 1348.295654,70.215179 
	C1348.000000,47.311829 1348.000000,24.624571 1348.000000,1.468657 
	C1362.687622,1.000000 1377.375122,1.000000 1392.531372,1.000000 
z"/>
<path fill="#EDC1AF" opacity="1.000000" stroke="none" 
	d="
M1299.531372,1.000000 
	C1300.000610,23.685053 1300.001099,46.370106 1300.003174,69.523270 
	C1294.101807,71.098923 1288.144287,70.371490 1282.214722,70.460968 
	C1273.765259,70.588470 1265.311646,70.544113 1256.378296,70.348282 
	C1253.763306,68.816498 1252.932129,66.783768 1252.911743,64.274910 
	C1252.755005,44.975323 1252.788452,25.675835 1252.905762,6.376364 
	C1252.915894,4.706989 1253.009644,3.025332 1254.661621,1.368138 
	C1269.687622,1.000000 1284.375122,1.000000 1299.531372,1.000000 
z"/>
<path fill="#EECCB7" opacity="1.000000" stroke="none" 
	d="
M1171.434082,70.895874 
	C1169.116211,68.842430 1168.967163,66.422974 1168.973145,63.855865 
	C1169.020996,43.216438 1169.000000,22.576853 1169.000000,1.468657 
	C1183.354248,1.000000 1197.708496,1.000000 1212.531372,1.000000 
	C1215.406616,2.965116 1215.121094,5.731455 1215.130615,8.370829 
	C1215.188965,24.516737 1215.202148,40.663055 1215.123535,56.808613 
	C1215.100220,61.580498 1214.784424,66.271477 1220.546875,68.249077 
	C1221.127930,68.448471 1221.304932,69.296516 1221.184082,70.404358 
	C1204.628418,70.873863 1188.264648,70.917816 1171.434082,70.895874 
z"/>
<path fill="#EBACA0" opacity="1.000000" stroke="none" 
	d="
M464.531342,1.000000 
	C465.000000,20.596777 464.975769,40.193615 465.024384,59.790268 
	C465.032227,62.962048 464.872070,66.082825 464.019958,69.571411 
	C457.765137,71.151688 451.479279,70.345741 445.221680,70.456512 
	C437.440521,70.594269 429.653442,70.579292 421.432800,70.212128 
	C420.997467,47.303867 420.998749,24.620592 421.000000,1.468657 
	C435.354218,1.000000 449.708466,1.000000 464.531342,1.000000 
z"/>
<path fill="#EEC6B2" opacity="1.000000" stroke="none" 
	d="
M1221.457275,70.896317 
	C1220.706665,70.011948 1220.257690,69.145287 1219.345337,69.188187 
	C1213.459229,69.464935 1212.875977,65.982506 1212.921509,61.181381 
	C1213.109131,41.434891 1213.000000,21.685585 1213.000000,1.468657 
	C1226.687622,1.000000 1240.375122,1.000000 1254.531372,1.000000 
	C1255.000000,21.267847 1255.004761,41.535698 1254.993774,61.803539 
	C1254.992432,64.298889 1254.918213,66.792900 1255.925415,69.586235 
	C1254.005981,71.060471 1251.843506,70.206802 1249.415527,70.686508 
	C1240.004395,70.873810 1230.963257,70.918274 1221.457275,70.896317 
z"/>
<path fill="#EECCB7" opacity="1.000000" stroke="none" 
	d="
M1169.468628,1248.000000 
	C1169.000000,1228.703735 1169.041138,1209.407227 1168.965454,1190.111206 
	C1168.950195,1186.240845 1169.343384,1182.496216 1170.798584,1178.510742 
	C1184.994507,1178.127930 1199.028809,1178.086060 1213.527588,1178.106567 
	C1214.402954,1178.725952 1214.757202,1179.463989 1214.430298,1180.014282 
	C1211.063354,1185.681396 1212.251709,1191.923584 1212.197144,1197.965454 
	C1212.070068,1212.046875 1212.202271,1226.130371 1212.119995,1240.212646 
	C1212.105713,1242.639160 1212.596436,1245.246582 1210.321411,1247.650635 
	C1196.645752,1248.000000 1183.291504,1248.000000 1169.468628,1248.000000 
z"/>
<path fill="#EEC6B2" opacity="1.000000" stroke="none" 
	d="
M1210.468628,1248.000000 
	C1210.000000,1227.901001 1210.106079,1207.800903 1209.906128,1187.703979 
	C1209.868286,1183.908325 1210.575562,1180.961304 1213.885986,1178.501221 
	C1225.366333,1178.125244 1236.740479,1178.081543 1248.582397,1178.104248 
	C1249.817993,1178.663818 1250.705933,1178.420532 1251.764526,1178.789795 
	C1248.900024,1182.081787 1248.940918,1185.952881 1248.959839,1189.960815 
	C1249.049805,1208.994385 1249.000000,1228.028687 1249.000000,1247.531372 
	C1236.312378,1248.000000 1223.624878,1248.000000 1210.468628,1248.000000 
z"/>
<path fill="#F1E0C5" opacity="1.000000" stroke="none" 
	d="
M1022.531372,1.000000 
	C1023.000000,21.725492 1023.004028,42.450985 1022.994629,63.176472 
	C1022.993591,65.501350 1022.925049,67.825218 1023.914185,70.433716 
	C1016.294312,70.875732 1008.592896,70.918892 1000.424316,70.892746 
	C996.623474,69.181496 993.044617,69.938843 989.633911,70.104210 
	C985.263489,70.316093 983.865662,68.865372 983.909302,64.429550 
	C984.114380,43.600525 984.000244,22.768360 984.000000,1.468657 
	C996.687561,1.000000 1009.375122,1.000000 1022.531372,1.000000 
z"/>
<path fill="#F1E0C5" opacity="1.000000" stroke="none" 
	d="
M1022.533569,1178.102783 
	C1022.998840,1201.132324 1022.999390,1224.097534 1023.000000,1247.531372 
	C1010.645752,1248.000000 998.291565,1248.000000 985.468628,1248.000000 
	C985.000122,1226.933472 985.124573,1205.865479 984.903320,1184.801270 
	C984.854736,1180.177124 986.292480,1178.539551 990.855835,1178.924683 
	C993.957336,1179.186768 997.119019,1178.735107 1000.599976,1178.389404 
	C1007.987061,1178.130249 1015.027954,1178.084351 1022.533569,1178.102783 
z"/>
<path fill="#EBACA0" opacity="1.000000" stroke="none" 
	d="
M1442.436279,70.215881 
	C1441.156982,67.274345 1440.969482,64.494629 1440.975952,61.651993 
	C1441.021484,41.747185 1441.000000,21.842226 1441.000000,1.468657 
	C1453.020874,1.000000 1465.041870,1.000000 1477.531372,1.000000 
	C1478.000488,23.684137 1478.000977,46.368275 1478.003174,69.520340 
	C1466.306641,71.119713 1454.582886,70.248917 1442.436279,70.215881 
z"/>
<path fill="#F2E5C9" opacity="1.000000" stroke="none" 
	d="
M909.607910,481.915283 
	C924.919250,495.641876 940.227905,508.708954 957.730164,518.933350 
	C976.962341,530.168335 996.934692,540.003296 1016.845703,549.945740 
	C1030.304321,556.666321 1043.847412,563.217468 1057.673950,570.005981 
	C1059.298584,572.581726 1061.761353,573.351257 1064.048462,574.255432 
	C1066.809570,575.347168 1067.711792,577.360535 1067.612183,580.127502 
	C1066.620117,607.698364 1067.377075,635.278992 1067.185059,662.854614 
	C1067.056763,681.297729 1067.273315,699.742615 1067.092163,718.185669 
	C1067.034180,724.074402 1066.043091,725.045288 1060.326416,725.245728 
	C1059.550537,725.001343 1059.292725,724.838440 1059.033569,724.335938 
	C1058.619019,723.596924 1058.162476,723.244385 1057.253418,723.109436 
	C1056.791504,723.069580 1056.627441,723.028442 1056.220459,722.913818 
	C1055.793091,722.708130 1055.608765,722.575928 1055.149902,722.242432 
	C1036.968018,712.094238 1018.569641,703.092712 1000.168701,694.126526 
	C979.758667,684.181396 959.208008,674.494324 938.430969,665.348328 
	C930.487244,661.851501 923.301758,657.024353 915.140137,653.411133 
	C914.107544,651.919495 912.832825,651.586426 911.197510,651.232544 
	C910.909424,651.064697 910.989929,651.023315 910.963135,651.059814 
	C906.079224,647.035400 905.747742,641.610718 905.762268,635.761536 
	C905.881775,587.713318 905.793213,539.664551 905.881470,491.616180 
	C905.887878,488.119293 904.900452,484.077026 909.607910,481.915283 
z"/>
<path fill="#F1DFC4" opacity="1.000000" stroke="none" 
	d="
M910.053833,481.708191 
	C908.088257,483.640991 907.994263,485.951721 907.994690,488.326019 
	C908.003540,539.052917 908.055298,589.779968 907.893127,640.506287 
	C907.880920,644.324463 910.385498,646.924316 910.937134,650.710388 
	C910.936340,651.096313 910.459412,651.002686 910.222900,650.946838 
	C909.752686,650.675476 909.503174,650.480103 909.036499,650.178223 
	C892.499268,641.103821 876.492920,631.604919 861.137756,621.053711 
	C851.688538,614.560791 842.579407,607.608459 834.090942,599.405273 
	C831.600769,594.100769 831.816772,588.759216 831.816711,583.430481 
	C831.815491,488.098572 831.847778,392.766632 831.799377,297.434723 
	C831.798462,295.599976 831.941833,293.771973 831.914795,291.447083 
	C839.404724,283.350677 848.376831,277.660858 857.486023,272.315033 
	C873.122437,263.138672 889.525940,255.573166 907.564697,250.928558 
	C908.764832,251.618362 909.000305,252.575592 908.909729,253.600601 
	C907.237366,272.522949 908.583435,291.484375 908.153809,310.422211 
	C908.087097,313.361450 908.613953,316.041412 910.966187,318.607086 
	C904.513977,325.599030 897.720764,331.931030 892.540955,339.809082 
	C884.013611,352.778320 879.682556,367.015472 877.915955,382.345520 
	C875.320251,404.870239 878.386108,426.482147 887.002014,447.366547 
	C892.010620,459.506989 899.440063,470.023712 908.897339,479.538818 
	C909.206299,480.108704 909.386475,480.371490 909.740417,480.804260 
	C909.890808,480.990326 910.004089,481.467896 910.053833,481.708191 
z"/>
<path fill="#F0DBC2" opacity="1.000000" stroke="none" 
	d="
M1132.923584,870.436523 
	C1134.999390,858.129883 1136.924316,846.258728 1135.928711,834.210083 
	C1135.284302,826.411743 1133.981567,818.667725 1132.934448,810.475464 
	C1130.487305,746.101990 1132.445312,682.128418 1131.865601,618.168579 
	C1131.844849,615.878723 1131.538818,613.450928 1133.635010,611.177734 
	C1146.838257,617.755005 1158.884766,625.778259 1170.273315,634.788513 
	C1177.130859,640.213989 1183.838257,645.816406 1189.900635,652.588623 
	C1192.973633,656.870850 1193.220581,661.417847 1193.218018,666.172607 
	C1193.168945,754.485413 1193.163940,842.798279 1193.198486,931.111084 
	C1193.199341,933.444763 1192.930542,935.768250 1193.131836,938.587891 
	C1180.030396,952.339600 1165.513062,963.906006 1149.303833,973.297913 
	C1144.809937,975.901733 1140.290161,978.460876 1135.419678,981.083618 
	C1131.353271,979.688110 1131.909302,976.386658 1131.889771,973.494690 
	C1131.769653,955.721619 1131.802979,937.947876 1131.846924,920.174622 
	C1131.887695,903.750244 1131.313354,887.309509 1132.923584,870.436523 
z"/>
<path fill="#F0DAC1" opacity="1.000000" stroke="none" 
	d="
M831.596741,291.085632 
	C834.717651,292.517303 833.976013,295.253632 833.977661,297.653809 
	C834.008057,342.142609 834.000000,386.631378 834.000000,431.120178 
	C834.000000,483.107086 834.052185,535.094177 833.891846,587.080566 
	C833.880127,590.872009 835.754150,594.577820 834.106445,598.742737 
	C816.033325,583.044128 800.846985,564.783508 789.267517,543.629211 
	C778.947083,524.774902 773.073914,504.513275 769.944397,483.322052 
	C767.523376,466.928497 766.317871,450.454559 767.093445,433.941559 
	C768.344849,407.297913 772.619629,381.227448 783.148376,356.417969 
	C790.775818,338.444946 801.160095,322.252350 814.186768,307.877960 
	C818.062744,303.600922 822.035339,299.265594 826.563904,295.105682 
	C827.049255,294.824951 827.235779,294.691528 827.697388,294.351318 
	C829.083740,293.168396 830.195129,292.192230 831.596741,291.085632 
z"/>
<path fill="#F1E0C5" opacity="1.000000" stroke="none" 
	d="
M1133.860596,610.586060 
	C1134.025024,674.922852 1134.016968,738.965759 1133.979980,803.008606 
	C1133.978638,805.142151 1134.414795,807.341248 1133.160889,809.726013 
	C1130.147949,804.709167 1129.279419,798.719055 1126.811890,793.213135 
	C1122.367188,783.294861 1116.768921,774.125366 1109.520996,766.212158 
	C1098.499878,754.179565 1086.544189,743.092957 1072.919922,733.896545 
	C1068.734619,731.071472 1064.525024,728.307739 1060.057861,725.352295 
	C1064.030029,724.633179 1065.099365,722.320862 1065.086426,718.272583 
	C1064.947388,675.011658 1065.000122,631.750122 1065.000244,588.488708 
	C1065.000244,587.157593 1064.805664,585.791382 1065.036987,584.501648 
	C1065.885864,579.770569 1066.566895,575.306824 1059.956421,574.145081 
	C1058.704590,573.925049 1058.110352,572.324402 1058.014648,570.529541 
	C1070.316895,574.696777 1081.668213,581.295166 1093.321777,587.185059 
	C1105.543701,593.362122 1117.174805,600.708435 1129.060303,607.550415 
	C1130.613037,608.444214 1132.143066,609.377319 1133.860596,610.586060 
z"/>
<path fill="#F0D7BF" opacity="1.000000" stroke="none" 
	d="
M1193.526367,938.928528 
	C1190.211060,938.210938 1191.040527,935.689697 1191.030762,933.678589 
	C1190.970093,921.200073 1191.000000,908.721191 1191.000000,896.242432 
	C1191.000000,821.037109 1191.002563,745.831787 1190.994629,670.626465 
	C1190.994141,664.986938 1191.327393,659.323914 1190.037598,653.321777 
	C1201.254395,662.055969 1209.343262,673.917175 1217.711914,685.468628 
	C1232.904053,706.438477 1241.105835,730.119690 1245.229614,755.613586 
	C1248.190063,773.914307 1248.859131,792.275391 1247.770386,810.558167 
	C1246.224243,836.521729 1239.813965,861.532104 1228.972656,885.345276 
	C1220.702393,903.511414 1210.320801,920.212158 1196.695190,934.849915 
	C1195.598022,936.028564 1194.778687,937.465759 1193.526367,938.928528 
z"/>
<path fill="#F2E5C9" opacity="1.000000" stroke="none" 
	d="
M911.459290,319.010284 
	C907.165894,319.377838 905.927368,317.435455 905.950623,313.661560 
	C906.064697,295.192719 906.049194,276.722473 905.946045,258.253510 
	C905.932190,255.764450 906.943604,253.777130 907.903687,251.270020 
	C918.489807,246.825668 929.545227,244.936386 940.581177,243.021683 
	C955.342834,240.460556 970.190063,238.685074 985.214111,239.012329 
	C988.372314,239.081100 991.303162,237.808075 994.522827,237.946121 
	C1013.948975,238.779022 1033.387085,239.110229 1052.703735,241.871078 
	C1060.924561,243.046021 1069.212524,243.694229 1077.638916,245.980911 
	C1080.436890,247.607330 1081.100586,249.867462 1081.113281,252.540787 
	C1081.220093,275.202942 1081.231934,297.865082 1081.081421,320.526825 
	C1081.065186,322.983795 1081.170532,325.709991 1077.358521,326.229614 
	C1069.114990,318.049774 1060.741089,310.809143 1050.462280,306.184387 
	C1038.177612,300.657074 1025.296997,297.498901 1011.891296,295.841919 
	C1002.918091,294.732819 993.982788,294.780609 985.081299,295.127502 
	C965.825073,295.877930 947.180542,299.963531 929.554932,307.916748 
	C923.195801,310.786194 917.229065,314.497070 911.459290,319.010284 
z"/>
<path fill="#F0DCC2" opacity="1.000000" stroke="none" 
	d="
M807.608704,771.443604 
	C809.501221,769.804626 811.344360,769.991760 813.159546,769.995972 
	C818.804077,770.009033 824.448608,769.999512 830.093140,769.999146 
	C837.263489,769.998657 837.494019,769.984009 837.949341,777.050293 
	C839.688171,804.036011 844.901489,830.341248 853.035889,856.493652 
	C855.510071,898.402771 853.578735,939.959839 854.119568,981.495605 
	C854.145203,983.462341 854.282288,985.535522 852.360962,987.488281 
	C835.041748,981.678894 818.612244,974.275940 802.085815,966.356812 
	C796.464294,961.414673 796.783936,955.169617 796.793030,948.834961 
	C796.870239,894.917297 796.836731,840.999512 796.838318,787.081726 
	C796.838379,784.918396 796.810486,782.754333 796.887939,780.592102 
	C797.111694,774.347046 798.158997,773.245178 804.390625,772.626892 
	C805.393677,772.527405 806.351990,772.266296 807.608704,771.443604 
z"/>
<path fill="#F1DFC4" opacity="1.000000" stroke="none" 
	d="
M1077.040527,326.347870 
	C1079.056152,325.495697 1078.994141,323.763245 1078.994263,322.078094 
	C1078.995850,298.499359 1079.008301,274.920593 1078.956909,251.341965 
	C1078.953735,249.882477 1078.439697,248.424103 1078.079590,246.566696 
	C1088.854858,247.324738 1099.319946,250.311325 1109.896973,252.844666 
	C1122.419434,255.843994 1134.327637,260.740601 1146.893555,264.508301 
	C1150.253784,267.737915 1151.200439,271.348694 1151.198120,275.602753 
	C1151.167847,330.038147 1151.195312,384.473633 1151.132080,438.909058 
	C1151.128052,442.376160 1151.480347,446.054443 1147.389648,448.532440 
	C1140.223633,451.319855 1133.223267,449.649811 1126.336670,449.789886 
	C1124.352417,449.830261 1124.294556,447.306122 1123.963379,445.491486 
	C1120.036011,423.972748 1115.282104,402.665497 1108.087280,381.950500 
	C1101.713379,363.598846 1093.050293,346.483307 1081.358887,330.945831 
	C1080.168701,329.363983 1078.586792,328.076813 1077.040527,326.347870 
z"/>
<path fill="#F2E5C9" opacity="1.000000" stroke="none" 
	d="
M931.622192,940.889404 
	C940.946960,943.153564 949.599792,946.108887 958.681885,947.378845 
	C965.653992,948.353821 972.586914,949.967224 979.629456,949.883728 
	C984.306091,949.828247 988.788940,951.002930 993.422363,951.027466 
	C1014.202820,951.137512 1034.786743,949.345886 1055.538940,944.937622 
	C1060.295776,945.088013 1062.054688,947.563599 1062.083008,951.693909 
	C1062.187500,966.922424 1062.211182,982.150452 1062.072144,997.378906 
	C1062.046143,1000.222839 1061.105957,1002.544434 1058.362305,1004.515869 
	C1051.791626,1007.144470 1045.179321,1007.125366 1038.750488,1007.882202 
	C1025.812744,1009.405151 1012.692322,1009.204285 999.775391,1010.363281 
	C985.294556,1011.662537 971.073792,1009.521301 956.718872,1009.765625 
	C947.452881,1009.923218 938.150940,1007.969116 928.434998,1006.896484 
	C924.026428,1004.173157 922.751892,1000.440796 922.798096,995.713928 
	C922.950928,980.080811 922.755859,964.444336 922.906006,948.810303 
	C922.972290,941.903809 924.366272,940.676758 931.622192,940.889404 
z"/>
<path fill="#F0DBC2" opacity="1.000000" stroke="none" 
	d="
M1147.442383,448.900116 
	C1148.942261,444.822510 1149.042603,440.558960 1149.037720,436.193787 
	C1148.979370,383.746582 1148.976929,331.299286 1149.040771,278.852112 
	C1149.046265,274.312744 1148.799683,269.888672 1147.128662,265.222961 
	C1161.319702,270.577301 1175.553223,276.297607 1188.318115,285.049042 
	C1190.923950,286.835571 1192.152710,288.754486 1192.101929,292.162292 
	C1191.868774,307.802094 1192.137573,323.448914 1191.955566,339.090057 
	C1191.781738,354.016785 1192.695190,368.926147 1193.284302,383.806091 
	C1193.938110,400.316254 1194.548950,416.960205 1197.929565,433.283264 
	C1198.581299,436.430145 1198.130371,438.824951 1194.006958,440.066864 
	C1178.913208,444.612885 1163.666260,448.095093 1147.442383,448.900116 
z"/>
<path fill="#F0D8C0" opacity="1.000000" stroke="none" 
	d="
M807.543701,771.100220 
	C807.282593,773.926453 805.429260,774.917664 802.742920,774.393799 
	C799.966919,773.852478 799.139709,775.379883 799.040405,777.717041 
	C798.976868,779.213440 799.001221,780.713928 799.001221,782.212585 
	C798.999756,839.334167 799.000305,896.455688 798.999390,953.577271 
	C798.999329,957.190125 798.305115,960.996521 802.336670,963.289612 
	C803.055237,963.698364 802.847290,964.789368 802.132935,965.808716 
	C790.313599,961.369080 779.605469,954.960693 768.618713,949.103088 
	C764.864990,947.101746 761.299316,944.721924 757.458008,942.919189 
	C754.573730,941.565491 753.531555,939.675171 754.021606,936.669373 
	C756.770386,919.808167 758.816284,902.883423 760.149719,885.829895 
	C761.358459,870.372437 762.525208,854.943359 763.136169,839.439331 
	C763.911987,819.750732 765.149109,800.078735 764.903809,780.367615 
	C764.865601,777.299683 766.662659,776.612610 768.594849,776.228516 
	C781.312073,773.700562 793.965027,770.598755 807.543701,771.100220 
z"/>
<path fill="#F1E0C5" opacity="1.000000" stroke="none" 
	d="
M931.906250,940.635498 
	C925.601624,941.448059 924.661865,945.332581 924.860901,951.117676 
	C925.305847,964.050842 924.994019,977.009827 925.002808,989.958252 
	C925.006592,995.514343 924.208679,1001.223328 927.984375,1006.462524 
	C911.242615,1004.791382 894.742371,1001.410706 878.529785,996.733765 
	C869.814392,994.219543 861.133667,991.528015 852.378662,987.910156 
	C852.002075,946.737610 851.996399,905.642883 852.012329,864.548157 
	C852.013245,862.238281 851.667786,859.873840 852.888794,857.273560 
	C855.596375,863.023743 858.366821,869.079346 860.617249,875.322449 
	C864.573425,886.297363 871.508423,895.447083 878.842285,904.119690 
	C890.717590,918.162781 905.156433,929.162231 922.137268,936.564941 
	C925.277161,937.933716 928.516052,939.075378 931.906250,940.635498 
z"/>
<path fill="#F1E0C5" opacity="1.000000" stroke="none" 
	d="
M1058.418579,1004.900269 
	C1061.244507,997.371521 1059.812256,989.491882 1059.955811,981.776367 
	C1060.138306,971.961975 1059.881592,962.139404 1060.067749,952.325195 
	C1060.127930,949.152893 1059.408447,946.813354 1056.195068,945.168213 
	C1062.643188,942.457886 1069.464722,940.412964 1076.004028,937.533142 
	C1085.211426,933.478210 1093.571167,928.339966 1101.091187,921.517944 
	C1115.520508,908.427795 1125.491089,892.662354 1131.370239,874.195374 
	C1131.764771,872.956116 1131.970459,871.656616 1132.576904,870.168823 
	C1134.257935,874.028564 1135.308960,878.125427 1134.396240,882.496094 
	C1134.093140,883.947388 1134.017456,885.468140 1134.016357,886.957275 
	C1133.995239,916.287292 1133.999390,945.617249 1134.002319,974.947266 
	C1134.002441,976.775757 1133.870239,978.625977 1134.887451,980.735352 
	C1122.376831,987.956421 1108.894043,992.762451 1095.180908,997.005676 
	C1084.398315,1000.342102 1073.285278,1002.274597 1062.321655,1004.840149 
	C1061.212524,1005.099670 1060.004150,1004.935791 1058.418579,1004.900269 
z"/>
<path fill="#EDBBAB" opacity="1.000000" stroke="none" 
	d="
M1400.471436,1179.003662 
	C1396.583130,1178.795044 1393.128784,1179.441284 1389.396973,1178.380859 
	C1422.745361,1178.114258 1456.431152,1178.060913 1490.116821,1178.005859 
	C1494.763306,1177.998291 1499.409912,1177.982544 1504.521484,1177.912354 
	C1503.363159,1179.539062 1501.255615,1178.969482 1499.324951,1178.977051 
	C1487.197266,1179.024048 1475.069092,1179.003662 1462.473022,1179.007812 
	C1441.649902,1179.007324 1421.294922,1179.004883 1400.471436,1179.003662 
z"/>
<path fill="#EDBBAB" opacity="1.000000" stroke="none" 
	d="
M1441.531372,69.996651 
	C1453.688843,69.995323 1465.377563,69.996811 1477.535645,69.993271 
	C1486.790039,70.347382 1495.607178,69.290054 1504.680664,70.867310 
	C1471.298462,71.097176 1437.606812,71.045555 1403.915039,70.991776 
	C1399.267700,70.984360 1394.620361,70.966248 1389.511475,70.892334 
	C1390.299561,69.787392 1391.807861,70.050819 1393.626953,69.998306 
	C1409.687622,69.997665 1425.375122,69.998558 1441.531372,69.996651 
z"/>
<path fill="#EDBBAB" opacity="1.000000" stroke="none" 
	d="
M420.527954,69.990845 
	C435.017426,69.990219 449.038635,69.993294 463.528107,69.994110 
	C478.081177,70.264809 492.176331,69.481110 506.599243,70.620766 
	C474.279846,70.889549 441.616058,70.941002 408.952271,70.993576 
	C405.285736,70.999474 401.619171,71.011795 397.487488,71.065002 
	C401.054504,68.794662 405.431244,70.378403 409.635925,70.054085 
	C413.091492,69.787537 416.583710,69.996407 420.527954,69.990845 
z"/>
<path fill="#EECCB7" opacity="1.000000" stroke="none" 
	d="
M1249.507324,70.891708 
	C1250.947021,69.488373 1253.123535,70.180290 1255.591064,69.998474 
	C1270.355469,69.997635 1284.710938,69.998016 1299.535645,69.994888 
	C1315.690796,69.996391 1331.376831,70.001396 1347.531372,70.002747 
	C1349.444946,70.138374 1350.889893,70.277664 1352.629883,70.620636 
	C1318.606445,70.867561 1284.287720,70.910812 1249.507324,70.891708 
z"/>
<path fill="#EECCB7" opacity="1.000000" stroke="none" 
	d="
M1252.468628,1179.003662 
	C1251.182129,1178.855347 1250.364258,1178.705688 1249.298218,1178.363281 
	C1283.371582,1178.132935 1317.692993,1178.095337 1352.475342,1178.116699 
	C1351.997437,1179.009521 1350.843018,1178.989380 1349.347412,1178.997192 
	C1332.647095,1179.001831 1316.294067,1179.003662 1299.473022,1179.007568 
	C1283.649048,1179.007324 1268.293091,1179.004761 1252.468628,1179.003662 
z"/>
<path fill="#EEC6B2" opacity="1.000000" stroke="none" 
	d="
M564.513611,70.891365 
	C565.298889,69.780014 566.807800,70.049988 568.625000,69.994843 
	C579.080750,70.264908 589.178223,69.479027 599.598022,70.616455 
	C588.287415,70.871979 576.631287,70.912285 564.513611,70.891365 
z"/>
<path fill="#EEC6B2" opacity="1.000000" stroke="none" 
	d="
M599.490234,1178.107666 
	C596.116516,1179.828003 592.079407,1178.947144 588.153137,1178.935303 
	C580.355103,1178.911865 572.541565,1179.500610 564.409912,1178.390381 
	C575.719055,1178.133667 587.373657,1178.090454 599.490234,1178.107666 
z"/>
<path fill="#EECCB7" opacity="1.000000" stroke="none" 
	d="
M645.503845,1178.108398 
	C642.599792,1179.632324 639.161316,1179.070557 635.392944,1178.386230 
	C638.390747,1178.133667 641.722107,1178.090088 645.503845,1178.108398 
z"/>
<path fill="#EECCB7" opacity="1.000000" stroke="none" 
	d="
M635.499634,70.887093 
	C638.406799,69.377258 641.844177,69.922966 645.612549,70.619247 
	C642.613708,70.870201 639.281616,70.911018 635.499634,70.887093 
z"/>
<path fill="#F1DFC4" opacity="1.000000" stroke="none" 
	d="
M911.071350,651.363281 
	C912.335754,651.120239 913.950012,650.636047 914.868042,652.761841 
	C913.716675,652.628906 912.474976,652.145386 911.071350,651.363281 
z"/>
<path fill="#F1E0C5" opacity="1.000000" stroke="none" 
	d="
M1057.091431,723.380981 
	C1057.838013,722.231567 1058.480591,722.374939 1058.918335,723.837708 
	C1058.381104,723.959656 1057.804077,723.805420 1057.091431,723.380981 
z"/>
<path fill="#F1DFC4" opacity="1.000000" stroke="none" 
	d="
M827.711670,294.136810 
	C827.788635,294.401245 827.559753,294.607819 827.074219,294.861328 
	C827.058838,294.681946 827.254944,294.405518 827.711670,294.136810 
z"/>
<path fill="#F0DCC2" opacity="1.000000" stroke="none" 
	d="
M1080.737671,1178.118896 
	C1080.973633,1178.168457 1080.634888,1178.419678 1080.634888,1178.419678 
	C1080.634888,1178.419678 1080.232422,1178.368164 1080.130615,1178.265991 
	C1080.028931,1178.163818 1080.501709,1178.069336 1080.737671,1178.118896 
z"/>
<path fill="#F2E5C9" opacity="1.000000" stroke="none" 
	d="
M909.907959,480.716003 
	C909.617126,480.804474 909.401123,480.566254 909.146240,480.052795 
	C909.341370,480.033844 909.633240,480.237793 909.907959,480.716003 
z"/>
<path fill="#F2E5C9" opacity="1.000000" stroke="none" 
	d="
M908.932861,650.306885 
	C909.146790,650.151123 909.425476,650.308838 909.828857,650.707886 
	C909.667786,650.781433 909.349182,650.671875 908.932861,650.306885 
z"/>
<path fill="#EFD1BA" opacity="1.000000" stroke="none" 
	d="
M723.738159,1178.122314 
	C723.973511,1178.168091 723.637390,1178.419556 723.637390,1178.419556 
	C723.637390,1178.419556 723.236572,1178.371094 723.134521,1178.270386 
	C723.032410,1178.169678 723.502747,1178.076660 723.738159,1178.122314 
z"/>
<path fill="#F1E0C5" opacity="1.000000" stroke="none" 
	d="
M1054.973755,722.280884 
	C1055.172974,722.136292 1055.437378,722.288757 1055.823120,722.669373 
	C1055.675659,722.733704 1055.373901,722.627136 1054.973755,722.280884 
z"/>
<path fill="#F0DCC2" opacity="1.000000" stroke="none" 
	d="
M1080.260986,70.883141 
	C1080.226929,70.565811 1080.473389,70.496819 1080.866943,70.730133 
	C1080.969604,70.831322 1080.497559,70.930351 1080.260986,70.883141 
z"/>
<path fill="#EFD1BA" opacity="1.000000" stroke="none" 
	d="
M723.263306,70.876587 
	C723.231384,70.563194 723.477356,70.496422 723.867676,70.730682 
	C723.969666,70.831673 723.498596,70.923157 723.263306,70.876587 
z"/>
</svg>